<?xml version="1.0" encoding="iso-8859-1"?>
<svg version="1.1" id="Capa_1" xmlns="http://www.w3.org/2000/svg" xmlns:xlink="http://www.w3.org/1999/xlink" x="0px" y="0px"
	 viewBox="0 0 512 512" style="enable-background:new 0 0 512 512;" xml:space="preserve">
<path style="fill:#994C0F;" d="M380.799,274.6C387.1,265,391,253.299,391,241c0-27.301-18.3-50.4-43.5-57.601
	c3.9-10.199,6-21.299,6-32.399c0-42.9-30.601-79.801-72.299-88.2C271,60.7,261.7,69.399,263.2,79.6c0.901,6.599-2.1,12.599-7.2,15.3
	c-2.1,1.5-4.799,2.1-7.5,2.1c-24.901,0-47.999,12.299-62.1,32.699c-10.499,15.601-14.399,33.6-12.299,51.899
	C144.401,185.2,121,210.099,121,241c0,12.299,3.6,23.699,10.201,33.3C107.8,282.7,91,304.9,91,331c0,32.999,27.001,60,60,60h210
	c32.999,0,60-27.001,60-60C421,304.9,404.2,282.7,380.799,274.6z"/>
<path style="fill:#713708;" d="M421,331c0,32.999-27.001,60-60,60H256V94.9c5.099-2.701,8.101-8.701,7.2-15.3
	c-1.5-10.201,7.8-18.9,18.001-16.8C322.9,71.199,353.5,108.1,353.5,151c0,11.1-2.1,22.2-6,32.399C372.7,190.6,391,213.699,391,241
	c0,12.299-3.9,24-10.201,33.6C404.2,282.7,421,304.9,421,331z"/>
<path style="fill:#FD4E26;" d="M256,0C115,0,0,114.699,0,256c0,140.7,115,256,256,256c141.301,0,256-115.6,256-256
	C512,115,396.7,0,256,0z M256,482C132.1,482.3,29.7,380.2,30,256c0-57.301,22.599-109.501,56.8-147.9L256,277.299L403.9,425.2
	C365.501,459.399,313.299,482,256,482z M425.2,403.9L108.1,86.8C146.499,52.599,198.701,30,256,30c124.2,0,226,101.8,226,226
	C482,313.599,459.401,365.499,425.2,403.9z"/>
<path style="fill:#FD3018;" d="M512,256c0,140.4-114.699,256-256,256v-30c57.299,0,109.501-22.601,147.9-56.8L256,277.299V234.7
	l169.2,169.2C459.4,365.499,482,313.6,482,256c0-124.2-101.8-226-226-226V0C396.7,0,512,115,512,256z"/>
<g>
</g>
<g>
</g>
<g>
</g>
<g>
</g>
<g>
</g>
<g>
</g>
<g>
</g>
<g>
</g>
<g>
</g>
<g>
</g>
<g>
</g>
<g>
</g>
<g>
</g>
<g>
</g>
<g>
</g>
</svg>
