<svg xmlns="http://www.w3.org/2000/svg" xmlns:xlink="http://www.w3.org/1999/xlink" version="1.1" x="0px" y="0px" viewBox="0 0 100 125" enable-background="new 0 0 100 100" xml:space="preserve">
<g display="none"><rect x="-114.548" y="-138.616" display="inline" fill="#000000" stroke="#FFFFFF" stroke-width="1.8302" stroke-linecap="round" stroke-miterlimit="10" width="1112.279" height="244.16"/></g>
<g>
<path fill="#000000" stroke="#FFA500" stroke-width="1.8302" stroke-linecap="round" stroke-miterlimit="10" d="M73.175,86.251h-46.35c-10.548,0-19.13-8.582-19.13-19.13c0-5.093,1.995-9.892,5.616-13.514   c2.561-2.56,5.77-4.331,9.235-5.128c-0.403-1.251-0.611-2.563-0.611-3.887c0-3.403,1.334-6.612,3.755-9.034   c2.422-2.422,5.634-3.756,9.044-3.756h9.923c2.889-1.316,5.401-3.856,4.94-12.311c-0.111-2.133,0.991-4.082,2.876-5.091   c1.863-0.997,4.069-0.838,5.755,0.418c6.572,4.923,11.481,11.917,13.03,18.48c4.161,2.216,6.796,6.541,6.796,11.294   c0,1.331-0.207,2.643-0.607,3.89c8.521,1.969,14.857,9.682,14.857,18.64c0,5.093-1.995,9.893-5.616,13.514   C83.056,84.257,78.257,86.251,73.175,86.251z M34.735,35.801c-2.342,0-4.549,0.918-6.216,2.584   c-1.666,1.667-2.584,3.871-2.584,6.206c0,1.56,0.422,3.095,1.22,4.439l1.64,2.761l-3.201,0.254   c-3.547,0.281-6.904,1.841-9.454,4.39c-2.866,2.867-4.444,6.662-4.444,10.686c0,8.343,6.788,15.13,15.13,15.13h46.35   c4.016,0,7.812-1.579,10.688-4.446c2.864-2.864,4.442-6.659,4.442-10.684c0-7.823-6.11-14.445-13.911-15.076l-3.211-0.26   l1.658-2.763c0.795-1.325,1.215-2.857,1.215-4.431c0-3.512-2.097-6.685-5.342-8.083l-0.982-0.423l-0.193-1.052   c-1.084-5.898-5.568-12.417-11.702-17.011c-0.625-0.464-1.239-0.223-1.474-0.096c-0.191,0.103-0.813,0.503-0.77,1.351   c0.483,8.868-1.905,13.918-7.743,16.369l-0.371,0.156H34.735z"/>
<g>
FFD700
<path fill="#8b4513" stroke="#f5d67b" stroke-width="1.8302" stroke-linecap="round" stroke-miterlimit="10" d="M25.259,75.497c-1.92-1.34-3.2-3.34-3.6-5.64c-0.41-2.3,0.1-4.63,1.44-6.54c1.34-1.92,3.34-3.2,5.64-3.61    c0.52-0.09,1.03-0.13,1.55-0.13c1.7,0,3.37,0.5,4.81,1.46c0.25-0.03,0.51-0.06,0.77-0.07c-0.1-0.08-0.21-0.16-0.31-0.23    c-4.18-2.92-9.95-1.89-12.87,2.29c-2.93,4.19-1.9,9.96,2.28,12.88c3.24,2.26,7.41,2.16,10.49,0.07c-0.25-0.02-0.51-0.06-0.76-0.11    C31.749,77.607,28.099,77.477,25.259,75.497z"/></g>
<path fill="#8b4513" stroke="#f5d67b" stroke-width="1.8302" stroke-linecap="round" stroke-miterlimit="10" d="M36.179,60.577c-0.1-0.09-0.22-0.17-0.33-0.25c-2.14-1.49-4.72-2.05-7.29-1.6c-2.56,0.45-4.79,1.88-6.28,4.01   c-1.49,2.14-2.06,4.73-1.61,7.29c0.46,2.57,1.88,4.8,4.02,6.29c1.66,1.16,3.62,1.74,5.58,1.74c1.92,0,3.83-0.55,5.47-1.66   c0.98-0.66,1.83-1.5,2.52-2.5C41.269,69.597,40.349,63.737,36.179,60.577z M35.099,61.037c-2,0.29-3.87,1.36-5.11,3.13   c-2.38,3.41-1.54,8.11,1.87,10.49c0.88,0.61,1.85,1.02,2.84,1.21c0.25,0.05,0.51,0.09,0.76,0.11c-3.08,2.09-7.25,2.19-10.49-0.07   c-4.18-2.92-5.21-8.69-2.28-12.88c2.92-4.18,8.69-5.21,12.87-2.29c0.1,0.07,0.21,0.15,0.31,0.23   C35.609,60.977,35.349,61.007,35.099,61.037z"/><g>
<g><path fill="#8b4513" stroke="#f5d67b" stroke-width="1.8302" stroke-linecap="round" stroke-miterlimit="10" d="M49.809,75.497c-1.91-1.34-3.19-3.34-3.6-5.64c-0.41-2.3,0.11-4.63,1.45-6.54c1.33-1.92,3.33-3.2,5.63-3.61     c0.52-0.09,1.04-0.13,1.55-0.13c1.71,0,3.37,0.5,4.82,1.46c0.25-0.04,0.51-0.06,0.76-0.07c-0.1-0.08-0.2-0.16-0.31-0.23     c-4.18-2.92-9.94-1.89-12.87,2.29c-2.92,4.19-1.9,9.96,2.29,12.88c3.23,2.26,7.4,2.16,10.48,0.07c-0.25-0.02-0.51-0.06-0.76-0.11     C56.309,77.607,52.649,77.477,49.809,75.497z"/></g>
</g><path fill="#8b4513" stroke="#f5d67b" stroke-width="1.8302" stroke-linecap="round" stroke-miterlimit="10" d="M60.729,60.577c-0.1-0.09-0.22-0.17-0.33-0.25c-2.13-1.49-4.72-2.05-7.28-1.6c-2.56,0.45-4.79,1.88-6.29,4.01   c-1.49,2.14-2.06,4.73-1.6,7.29c0.45,2.57,1.88,4.8,4.01,6.29c1.69,1.18,3.64,1.77,5.59,1.77c1.9,0,3.8-0.56,5.46-1.69   c0.98-0.66,1.83-1.5,2.53-2.5C65.819,69.597,64.899,63.737,60.729,60.577z M59.659,61.037c-1.99,0.28-3.87,1.35-5.11,3.13   c-2.39,3.41-1.54,8.11,1.86,10.49c0.88,0.61,1.85,1.02,2.84,1.21c0.25,0.05,0.51,0.09,0.76,0.11c-3.08,2.09-7.25,2.19-10.48-0.07   c-4.19-2.92-5.21-8.69-2.29-12.88c2.93-4.18,8.69-5.21,12.87-2.29c0.11,0.07,0.21,0.15,0.31,0.23   C60.169,60.977,59.909,60.997,59.659,61.037z"/></g>
</svg>